<mxfile host="app.diagrams.net" modified="2022-11-22T10:44:08.588Z" agent="5.0 (Windows NT 10.0; Win64; x64) AppleWebKit/537.36 (KHTML, like Gecko) Chrome/107.0.0.0 Safari/537.36" etag="qtpHxQSnkETlL53sQRGj" version="20.5.3" type="github">
  <diagram id="1xJNQCUnH0Udo0gco4Qg" name="Page-1">
    <mxGraphModel dx="1730" dy="952" grid="1" gridSize="10" guides="1" tooltips="1" connect="1" arrows="1" fold="1" page="1" pageScale="1" pageWidth="850" pageHeight="1100" math="0" shadow="0">
      <root>
        <mxCell id="0" />
        <mxCell id="1" parent="0" />
        <mxCell id="poe53v55CzK0JZzojDLu-20" value="" style="group" vertex="1" connectable="0" parent="1">
          <mxGeometry x="95" y="120" width="525" height="520" as="geometry" />
        </mxCell>
        <mxCell id="poe53v55CzK0JZzojDLu-1" value="&lt;font style=&quot;font-size: 16px;&quot;&gt;Client&lt;/font&gt;" style="rounded=1;whiteSpace=wrap;html=1;" vertex="1" parent="poe53v55CzK0JZzojDLu-20">
          <mxGeometry x="15" width="170" height="40" as="geometry" />
        </mxCell>
        <mxCell id="poe53v55CzK0JZzojDLu-2" value="&lt;font style=&quot;font-size: 16px;&quot;&gt;Internet&lt;/font&gt;" style="ellipse;shape=cloud;whiteSpace=wrap;html=1;fillColor=#dae8fc;strokeColor=#6c8ebf;" vertex="1" parent="poe53v55CzK0JZzojDLu-20">
          <mxGeometry y="100" width="200" height="120" as="geometry" />
        </mxCell>
        <mxCell id="poe53v55CzK0JZzojDLu-18" style="edgeStyle=orthogonalEdgeStyle;rounded=0;orthogonalLoop=1;jettySize=auto;html=1;fontSize=16;startArrow=classic;startFill=1;" edge="1" parent="poe53v55CzK0JZzojDLu-20" source="poe53v55CzK0JZzojDLu-1" target="poe53v55CzK0JZzojDLu-2">
          <mxGeometry relative="1" as="geometry" />
        </mxCell>
        <mxCell id="poe53v55CzK0JZzojDLu-15" value="" style="group" vertex="1" connectable="0" parent="poe53v55CzK0JZzojDLu-20">
          <mxGeometry x="225" y="240" width="300" height="280" as="geometry" />
        </mxCell>
        <mxCell id="poe53v55CzK0JZzojDLu-4" value="Web App" style="rounded=0;whiteSpace=wrap;html=1;fontSize=16;fillColor=#FFFF99;" vertex="1" parent="poe53v55CzK0JZzojDLu-15">
          <mxGeometry y="40" width="160" height="80" as="geometry" />
        </mxCell>
        <mxCell id="poe53v55CzK0JZzojDLu-5" value="Service" style="rounded=0;whiteSpace=wrap;html=1;fontSize=16;fillColor=#99FFFF;" vertex="1" parent="poe53v55CzK0JZzojDLu-15">
          <mxGeometry y="120" width="160" height="80" as="geometry" />
        </mxCell>
        <mxCell id="poe53v55CzK0JZzojDLu-6" value="Data" style="rounded=0;whiteSpace=wrap;html=1;fontSize=16;fillColor=#E5CCFF;" vertex="1" parent="poe53v55CzK0JZzojDLu-15">
          <mxGeometry y="200" width="160" height="80" as="geometry" />
        </mxCell>
        <mxCell id="poe53v55CzK0JZzojDLu-7" value="Server" style="text;html=1;strokeColor=none;fillColor=none;align=center;verticalAlign=middle;whiteSpace=wrap;rounded=0;fontSize=16;" vertex="1" parent="poe53v55CzK0JZzojDLu-15">
          <mxGeometry x="50" width="60" height="30" as="geometry" />
        </mxCell>
        <mxCell id="poe53v55CzK0JZzojDLu-9" style="edgeStyle=orthogonalEdgeStyle;rounded=0;orthogonalLoop=1;jettySize=auto;html=1;fontSize=16;startArrow=classic;startFill=1;" edge="1" parent="poe53v55CzK0JZzojDLu-15">
          <mxGeometry relative="1" as="geometry">
            <mxPoint x="160" y="170" as="sourcePoint" />
            <mxPoint x="160" y="240" as="targetPoint" />
            <Array as="points">
              <mxPoint x="240" y="170" />
              <mxPoint x="240" y="240" />
              <mxPoint x="160" y="240" />
            </Array>
          </mxGeometry>
        </mxCell>
        <mxCell id="poe53v55CzK0JZzojDLu-10" style="edgeStyle=orthogonalEdgeStyle;rounded=0;orthogonalLoop=1;jettySize=auto;html=1;fontSize=16;startArrow=classic;startFill=1;exitX=1;exitY=0.5;exitDx=0;exitDy=0;" edge="1" parent="poe53v55CzK0JZzojDLu-15" source="poe53v55CzK0JZzojDLu-4">
          <mxGeometry relative="1" as="geometry">
            <mxPoint x="160" y="60" as="sourcePoint" />
            <mxPoint x="160" y="150" as="targetPoint" />
            <Array as="points">
              <mxPoint x="240" y="80" />
              <mxPoint x="240" y="150" />
              <mxPoint x="160" y="150" />
            </Array>
          </mxGeometry>
        </mxCell>
        <mxCell id="poe53v55CzK0JZzojDLu-13" value="Local Host" style="text;html=1;strokeColor=none;fillColor=default;align=center;verticalAlign=middle;whiteSpace=wrap;rounded=0;fontSize=16;" vertex="1" parent="poe53v55CzK0JZzojDLu-15">
          <mxGeometry x="190" y="100" width="110" height="30" as="geometry" />
        </mxCell>
        <mxCell id="poe53v55CzK0JZzojDLu-14" value="Local Host" style="text;html=1;strokeColor=none;fillColor=default;align=center;verticalAlign=middle;whiteSpace=wrap;rounded=0;fontSize=16;" vertex="1" parent="poe53v55CzK0JZzojDLu-15">
          <mxGeometry x="190" y="190" width="110" height="30" as="geometry" />
        </mxCell>
        <mxCell id="poe53v55CzK0JZzojDLu-16" style="edgeStyle=orthogonalEdgeStyle;rounded=0;orthogonalLoop=1;jettySize=auto;html=1;entryX=0;entryY=0.5;entryDx=0;entryDy=0;fontSize=16;startArrow=classic;startFill=1;" edge="1" parent="poe53v55CzK0JZzojDLu-20" source="poe53v55CzK0JZzojDLu-2" target="poe53v55CzK0JZzojDLu-4">
          <mxGeometry relative="1" as="geometry">
            <Array as="points">
              <mxPoint x="100" y="320" />
            </Array>
          </mxGeometry>
        </mxCell>
        <mxCell id="poe53v55CzK0JZzojDLu-17" value="HTTP" style="edgeLabel;html=1;align=center;verticalAlign=middle;resizable=0;points=[];fontSize=16;" vertex="1" connectable="0" parent="poe53v55CzK0JZzojDLu-16">
          <mxGeometry x="-0.2836" y="-4" relative="1" as="geometry">
            <mxPoint x="59" y="19" as="offset" />
          </mxGeometry>
        </mxCell>
      </root>
    </mxGraphModel>
  </diagram>
</mxfile>
